<svg xmlns="http://www.w3.org/2000/svg" viewBox="0 0 1000 470" role="img" aria-labelledby="title desc"><title id="title">上下文变长时，注意力到底在看几个位置（动画）</title><desc id="desc">同样的 q、同样的随机 K。柱高是注意力权重的降序分段，每帧内各自归一。</desc><defs><marker id="arrow" markerWidth="7" markerHeight="7" refX="6" refY="3.5" orient="auto"><path d="M0 0 L7 3.5 L0 7" fill="#b3becc"/></marker></defs><style>@keyframes sw{0%,23.9%{opacity:1}24%,100%{opacity:0}}.f{animation:sw 16s linear infinite;opacity:0}.f1{animation-delay:0s}.f2{animation-delay:4s}.f3{animation-delay:8s}.f4{animation-delay:12s}@media (prefers-reduced-motion:reduce){.f{animation:none;opacity:0}.f4{opacity:1}}</style><g font-family="PingFang SC,Microsoft YaHei,Arial,sans-serif"><rect x="0" y="0" width="1000" height="470" rx="0" fill="#ffffff" stroke="none"/><text x="40" y="42" font-size="13" fill="#218575" font-weight="600" text-anchor="start">MATINFER / ATTN-FFN / 03</text><text x="40" y="85" font-size="28" fill="#24334a" font-weight="600" text-anchor="start">上下文变长时，注意力到底在看几个位置（动画）</text><text x="40" y="119" font-size="17" fill="#6d7c90" font-weight="400" text-anchor="start">同样的 q、同样的随机 K。柱高是注意力权重的降序分段，每帧内各自归一。</text><g class="f f1"><rect x="40" y="152" width="920" height="244" rx="12" fill="#f7f9fc" stroke="none"/><text x="64" y="190" font-size="24" fill="#24334a" font-weight="600" text-anchor="start">上下文长度 T = 16</text><text x="520" y="190" font-size="16" fill="#218575" font-weight="600" text-anchor="start">正确缩放后覆盖可见位置的 65.7%</text><path d="M340 262 L936 262" fill="none" stroke="#d8e0e9" stroke-width="1"/><text x="64" y="258" font-size="16" fill="#c88735" font-weight="600" text-anchor="start">不缩放</text><text x="214" y="258" font-size="14" fill="#6d7c90" font-weight="400" text-anchor="start">有效位置数 1.70</text><rect x="340.0" y="216.0" width="27.565" height="46.0" rx="2" fill="#c88735" stroke="none"/><rect x="377.25" y="221.39715689338502" width="27.565" height="40.60284310661499" rx="2" fill="#c88735" stroke="none"/><path d="M340 348 L936 348" fill="none" stroke="#d8e0e9" stroke-width="1"/><text x="64" y="344" font-size="16" fill="#218575" font-weight="600" text-anchor="start">除以 sqrt(d_k)</text><text x="214" y="344" font-size="14" fill="#6d7c90" font-weight="400" text-anchor="start">有效位置数 10.51</text><rect x="340.0" y="302.0" width="27.565" height="46.0" rx="2" fill="#218575" stroke="none"/><rect x="377.25" y="302.7120504227185" width="27.565" height="45.287949577281495" rx="2" fill="#218575" stroke="none"/><rect x="414.5" y="332.8438952817563" width="27.565" height="15.156104718243709" rx="2" fill="#218575" stroke="none"/><rect x="451.75" y="339.37518761136835" width="27.565" height="8.624812388631668" rx="2" fill="#218575" stroke="none"/><rect x="489.0" y="340.05739883573455" width="27.565" height="7.942601164265463" rx="2" fill="#218575" stroke="none"/><rect x="526.25" y="340.3562914455001" width="27.565" height="7.64370855449987" rx="2" fill="#218575" stroke="none"/><rect x="563.5" y="341.04912342287156" width="27.565" height="6.950876577128455" rx="2" fill="#218575" stroke="none"/><rect x="600.75" y="341.7318325190902" width="27.565" height="6.2681674809098435" rx="2" fill="#218575" stroke="none"/><rect x="638.0" y="341.9724254928129" width="27.565" height="6.027574507187099" rx="2" fill="#218575" stroke="none"/><rect x="675.25" y="343.60340603543585" width="27.565" height="4.396593964564136" rx="2" fill="#218575" stroke="none"/><rect x="712.5" y="344.88799831085566" width="27.565" height="3.1120016891443427" rx="2" fill="#218575" stroke="none"/><rect x="749.75" y="345.29506753835165" width="27.565" height="2.7049324616483523" rx="2" fill="#218575" stroke="none"/><rect x="787.0" y="346.3601286003938" width="27.565" height="1.6398713996061685" rx="2" fill="#218575" stroke="none"/><rect x="824.25" y="346.43379507490596" width="27.565" height="1.566204925094061" rx="2" fill="#218575" stroke="none"/><rect x="861.5" y="346.75095615027266" width="27.565" height="1.2490438497273506" rx="2" fill="#218575" stroke="none"/></g><g class="f f2"><rect x="40" y="152" width="920" height="244" rx="12" fill="#f7f9fc" stroke="none"/><text x="64" y="190" font-size="24" fill="#24334a" font-weight="600" text-anchor="start">上下文长度 T = 64</text><text x="520" y="190" font-size="16" fill="#218575" font-weight="600" text-anchor="start">正确缩放后覆盖可见位置的 61.1%</text><path d="M340 262 L936 262" fill="none" stroke="#d8e0e9" stroke-width="1"/><text x="64" y="258" font-size="16" fill="#c88735" font-weight="600" text-anchor="start">不缩放</text><text x="214" y="258" font-size="14" fill="#6d7c90" font-weight="400" text-anchor="start">有效位置数 2.06</text><rect x="340.0" y="236.3773892149649" width="11.026" height="25.622610785035118" rx="2" fill="#c88735" stroke="none"/><rect x="354.9" y="216.0" width="11.026" height="46.0" rx="2" fill="#c88735" stroke="none"/><rect x="369.8" y="246.13966545041217" width="11.026" height="15.860334549587844" rx="2" fill="#c88735" stroke="none"/><path d="M340 348 L936 348" fill="none" stroke="#d8e0e9" stroke-width="1"/><text x="64" y="344" font-size="16" fill="#218575" font-weight="600" text-anchor="start">除以 sqrt(d_k)</text><text x="214" y="344" font-size="14" fill="#6d7c90" font-weight="400" text-anchor="start">有效位置数 39.12</text><rect x="340.0" y="324.68709526285716" width="11.026" height="23.312904737142816" rx="2" fill="#218575" stroke="none"/><rect x="354.9" y="302.0" width="11.026" height="46.0" rx="2" fill="#218575" stroke="none"/><rect x="369.8" y="326.04378324379127" width="11.026" height="21.95621675620875" rx="2" fill="#218575" stroke="none"/><rect x="384.7" y="319.95375853452254" width="11.026" height="28.046241465477475" rx="2" fill="#218575" stroke="none"/><rect x="399.6" y="325.47586499133564" width="11.026" height="22.52413500866434" rx="2" fill="#218575" stroke="none"/><rect x="414.5" y="338.7113809374229" width="11.026" height="9.288619062577093" rx="2" fill="#218575" stroke="none"/><rect x="429.4" y="330.53748483512567" width="11.026" height="17.462515164874333" rx="2" fill="#218575" stroke="none"/><rect x="444.3" y="339.7724127884802" width="11.026" height="8.227587211519774" rx="2" fill="#218575" stroke="none"/><rect x="459.2" y="334.5962872607391" width="11.026" height="13.4037127392609" rx="2" fill="#218575" stroke="none"/><rect x="474.1" y="337.5297072392432" width="11.026" height="10.47029276075682" rx="2" fill="#218575" stroke="none"/><rect x="489.0" y="342.98775081905" width="11.026" height="5.012249180950001" rx="2" fill="#218575" stroke="none"/><rect x="503.9" y="338.58856315055266" width="11.026" height="9.411436849447359" rx="2" fill="#218575" stroke="none"/><rect x="518.8" y="343.62892544365434" width="11.026" height="4.371074556345637" rx="2" fill="#218575" stroke="none"/><rect x="533.7" y="339.48937777746573" width="11.026" height="8.510622222534263" rx="2" fill="#218575" stroke="none"/><rect x="548.6" y="339.99380186872986" width="11.026" height="8.00619813127015" rx="2" fill="#218575" stroke="none"/><rect x="563.5" y="344.1261511006622" width="11.026" height="3.873848899337807" rx="2" fill="#218575" stroke="none"/><rect x="578.4" y="340.7275366160487" width="11.026" height="7.272463383951293" rx="2" fill="#218575" stroke="none"/><rect x="593.3" y="344.6121954277872" width="11.026" height="3.3878045722128363" rx="2" fill="#218575" stroke="none"/><rect x="608.2" y="341.7684899643263" width="11.026" height="6.231510035673719" rx="2" fill="#218575" stroke="none"/><rect x="623.1" y="342.5972145010334" width="11.026" height="5.402785498966562" rx="2" fill="#218575" stroke="none"/><rect x="638.0" y="345.4192558167942" width="11.026" height="2.580744183205819" rx="2" fill="#218575" stroke="none"/><rect x="652.9000000000001" y="342.9380285244472" width="11.026" height="5.061971475552814" rx="2" fill="#218575" stroke="none"/><rect x="667.8" y="345.5215548015528" width="11.026" height="2.4784451984472122" rx="2" fill="#218575" stroke="none"/><rect x="682.7" y="343.1460066825483" width="11.026" height="4.853993317451672" rx="2" fill="#218575" stroke="none"/><rect x="697.6" y="343.3620701850361" width="11.026" height="4.637929814963896" rx="2" fill="#218575" stroke="none"/><rect x="712.5" y="345.7717961681787" width="11.026" height="2.228203831821321" rx="2" fill="#218575" stroke="none"/><rect x="727.4000000000001" y="344.09220340021454" width="11.026" height="3.9077965997854545" rx="2" fill="#218575" stroke="none"/><rect x="742.3" y="346.2892647552205" width="11.026" height="1.7107352447795197" rx="2" fill="#218575" stroke="none"/><rect x="757.2" y="344.7555926213783" width="11.026" height="3.2444073786217107" rx="2" fill="#218575" stroke="none"/><rect x="772.1" y="344.9507205894973" width="11.026" height="3.0492794105027263" rx="2" fill="#218575" stroke="none"/><rect x="787.0" y="346.62913406959103" width="11.026" height="1.3708659304089839" rx="2" fill="#218575" stroke="none"/><rect x="801.9000000000001" y="345.7860994892634" width="11.026" height="2.2139005107365826" rx="2" fill="#218575" stroke="none"/><rect x="816.8" y="346.95047643202855" width="11.026" height="1.0495235679714316" rx="2" fill="#218575" stroke="none"/><rect x="831.7" y="346.07823680727154" width="11.026" height="1.9217631927284686" rx="2" fill="#218575" stroke="none"/><rect x="846.6" y="346.2482572922126" width="11.026" height="1.7517427077874026" rx="2" fill="#218575" stroke="none"/><rect x="876.4" y="346.4682567796383" width="11.026" height="1.5317432203617085" rx="2" fill="#218575" stroke="none"/><rect x="906.2" y="346.7474667257486" width="11.026" height="1.252533274251378" rx="2" fill="#218575" stroke="none"/></g><g class="f f3"><rect x="40" y="152" width="920" height="244" rx="12" fill="#f7f9fc" stroke="none"/><text x="64" y="190" font-size="24" fill="#24334a" font-weight="600" text-anchor="start">上下文长度 T = 512</text><text x="520" y="190" font-size="16" fill="#218575" font-weight="600" text-anchor="start">正确缩放后覆盖可见位置的 60.4%</text><path d="M340 262 L936 262" fill="none" stroke="#d8e0e9" stroke-width="1"/><text x="64" y="258" font-size="16" fill="#c88735" font-weight="600" text-anchor="start">不缩放</text><text x="214" y="258" font-size="14" fill="#6d7c90" font-weight="400" text-anchor="start">有效位置数 3.18</text><rect x="340.0" y="216.0" width="11.026" height="46.0" rx="2" fill="#c88735" stroke="none"/><path d="M340 348 L936 348" fill="none" stroke="#d8e0e9" stroke-width="1"/><text x="64" y="344" font-size="16" fill="#218575" font-weight="600" text-anchor="start">除以 sqrt(d_k)</text><text x="214" y="344" font-size="14" fill="#6d7c90" font-weight="400" text-anchor="start">有效位置数 309.03</text><rect x="340.0" y="302.0" width="11.026" height="46.0" rx="2" fill="#218575" stroke="none"/><rect x="354.9" y="316.7496245276583" width="11.026" height="31.250375472341734" rx="2" fill="#218575" stroke="none"/><rect x="369.8" y="324.84155644028294" width="11.026" height="23.15844355971705" rx="2" fill="#218575" stroke="none"/><rect x="384.7" y="328.7730825831416" width="11.026" height="19.226917416858385" rx="2" fill="#218575" stroke="none"/><rect x="399.6" y="330.89049577052583" width="11.026" height="17.10950422947416" rx="2" fill="#218575" stroke="none"/><rect x="414.5" y="333.3686427991477" width="11.026" height="14.631357200852282" rx="2" fill="#218575" stroke="none"/><rect x="429.4" y="334.1505313045514" width="11.026" height="13.84946869544862" rx="2" fill="#218575" stroke="none"/><rect x="444.3" y="335.5739513380629" width="11.026" height="12.426048661937116" rx="2" fill="#218575" stroke="none"/><rect x="459.2" y="336.49742610781993" width="11.026" height="11.502573892180054" rx="2" fill="#218575" stroke="none"/><rect x="474.1" y="337.47696391430964" width="11.026" height="10.52303608569039" rx="2" fill="#218575" stroke="none"/><rect x="489.0" y="338.90549349031" width="11.026" height="9.09450650968999" rx="2" fill="#218575" stroke="none"/><rect x="503.9" y="338.7087154013106" width="11.026" height="9.291284598689419" rx="2" fill="#218575" stroke="none"/><rect x="518.8" y="339.4270837454657" width="11.026" height="8.572916254534302" rx="2" fill="#218575" stroke="none"/><rect x="533.7" y="340.222533351467" width="11.026" height="7.777466648532991" rx="2" fill="#218575" stroke="none"/><rect x="548.6" y="340.8430256208222" width="11.026" height="7.156974379177835" rx="2" fill="#218575" stroke="none"/><rect x="563.5" y="341.9000528896137" width="11.026" height="6.099947110386309" rx="2" fill="#218575" stroke="none"/><rect x="578.4" y="341.8020791710945" width="11.026" height="6.1979208289055405" rx="2" fill="#218575" stroke="none"/><rect x="593.3" y="342.34445554274237" width="11.026" height="5.6555444572576326" rx="2" fill="#218575" stroke="none"/><rect x="608.2" y="342.70183197205273" width="11.026" height="5.298168027947296" rx="2" fill="#218575" stroke="none"/><rect x="623.1" y="342.956322209635" width="11.026" height="5.0436777903650105" rx="2" fill="#218575" stroke="none"/><rect x="638.0" y="343.57351187838725" width="11.026" height="4.426488121612728" rx="2" fill="#218575" stroke="none"/><rect x="652.9000000000001" y="343.5110788497085" width="11.026" height="4.488921150291526" rx="2" fill="#218575" stroke="none"/><rect x="667.8" y="343.75797507586725" width="11.026" height="4.242024924132775" rx="2" fill="#218575" stroke="none"/><rect x="682.7" y="343.9843911529664" width="11.026" height="4.015608847033604" rx="2" fill="#218575" stroke="none"/><rect x="697.6" y="344.2595115816276" width="11.026" height="3.740488418372401" rx="2" fill="#218575" stroke="none"/><rect x="712.5" y="344.96376702234795" width="11.026" height="3.036232977652025" rx="2" fill="#218575" stroke="none"/><rect x="727.4000000000001" y="345.0014622142501" width="11.026" height="2.998537785749848" rx="2" fill="#218575" stroke="none"/><rect x="742.3" y="345.24477984269066" width="11.026" height="2.7552201573093353" rx="2" fill="#218575" stroke="none"/><rect x="757.2" y="345.42481458802894" width="11.026" height="2.5751854119710558" rx="2" fill="#218575" stroke="none"/><rect x="772.1" y="345.61100512239136" width="11.026" height="2.388994877608616" rx="2" fill="#218575" stroke="none"/><rect x="787.0" y="346.047876187275" width="11.026" height="1.9521238127250284" rx="2" fill="#218575" stroke="none"/><rect x="801.9000000000001" y="346.06689551239185" width="11.026" height="1.9331044876081533" rx="2" fill="#218575" stroke="none"/><rect x="816.8" y="346.2424168397522" width="11.026" height="1.7575831602477936" rx="2" fill="#218575" stroke="none"/><rect x="831.7" y="346.39263987543956" width="11.026" height="1.6073601245604698" rx="2" fill="#218575" stroke="none"/><rect x="846.6" y="346.62178808699645" width="11.026" height="1.3782119130035773" rx="2" fill="#218575" stroke="none"/><rect x="861.5" y="346.867890913665" width="11.026" height="1.1321090863349967" rx="2" fill="#218575" stroke="none"/><rect x="876.4" y="346.89726391604336" width="11.026" height="1.1027360839566316" rx="2" fill="#218575" stroke="none"/></g><g class="f f4"><rect x="40" y="152" width="920" height="244" rx="12" fill="#f7f9fc" stroke="none"/><text x="64" y="190" font-size="24" fill="#24334a" font-weight="600" text-anchor="start">上下文长度 T = 4096</text><text x="520" y="190" font-size="16" fill="#218575" font-weight="600" text-anchor="start">正确缩放后覆盖可见位置的 61.8%</text><path d="M340 262 L936 262" fill="none" stroke="#d8e0e9" stroke-width="1"/><text x="64" y="258" font-size="16" fill="#c88735" font-weight="600" text-anchor="start">不缩放</text><text x="214" y="258" font-size="14" fill="#6d7c90" font-weight="400" text-anchor="start">有效位置数 3.88</text><rect x="340.0" y="216.0" width="11.026" height="46.0" rx="2" fill="#c88735" stroke="none"/><path d="M340 348 L936 348" fill="none" stroke="#d8e0e9" stroke-width="1"/><text x="64" y="344" font-size="16" fill="#218575" font-weight="600" text-anchor="start">除以 sqrt(d_k)</text><text x="214" y="344" font-size="14" fill="#6d7c90" font-weight="400" text-anchor="start">有效位置数 2531.70</text><rect x="340.0" y="302.0" width="11.026" height="46.0" rx="2" fill="#218575" stroke="none"/><rect x="354.9" y="325.04881928603646" width="11.026" height="22.951180713963534" rx="2" fill="#218575" stroke="none"/><rect x="369.8" y="329.9907272150868" width="11.026" height="18.009272784913207" rx="2" fill="#218575" stroke="none"/><rect x="384.7" y="333.056550074598" width="11.026" height="14.943449925401973" rx="2" fill="#218575" stroke="none"/><rect x="399.6" y="335.00612960162505" width="11.026" height="12.993870398374975" rx="2" fill="#218575" stroke="none"/><rect x="414.5" y="336.8670420723252" width="11.026" height="11.13295792767477" rx="2" fill="#218575" stroke="none"/><rect x="429.4" y="338.08588827277663" width="11.026" height="9.914111727223395" rx="2" fill="#218575" stroke="none"/><rect x="444.3" y="338.93193030501186" width="11.026" height="9.068069694988123" rx="2" fill="#218575" stroke="none"/><rect x="459.2" y="339.77847193892654" width="11.026" height="8.22152806107344" rx="2" fill="#218575" stroke="none"/><rect x="474.1" y="340.3986010793659" width="11.026" height="7.601398920634084" rx="2" fill="#218575" stroke="none"/><rect x="489.0" y="341.05631562995245" width="11.026" height="6.943684370047572" rx="2" fill="#218575" stroke="none"/><rect x="503.9" y="341.5999568131281" width="11.026" height="6.400043186871912" rx="2" fill="#218575" stroke="none"/><rect x="518.8" y="342.03240939346" width="11.026" height="5.967590606540015" rx="2" fill="#218575" stroke="none"/><rect x="533.7" y="342.47809381590247" width="11.026" height="5.521906184097558" rx="2" fill="#218575" stroke="none"/><rect x="548.6" y="342.80870973353643" width="11.026" height="5.191290266463556" rx="2" fill="#218575" stroke="none"/><rect x="563.5" y="343.1950070481613" width="11.026" height="4.804992951838702" rx="2" fill="#218575" stroke="none"/><rect x="578.4" y="343.5039802061" width="11.026" height="4.49601979389999" rx="2" fill="#218575" stroke="none"/><rect x="593.3" y="343.7573249110177" width="11.026" height="4.242675088982286" rx="2" fill="#218575" stroke="none"/><rect x="608.2" y="344.05040360730254" width="11.026" height="3.949596392697445" rx="2" fill="#218575" stroke="none"/><rect x="623.1" y="344.2508994111781" width="11.026" height="3.749100588821849" rx="2" fill="#218575" stroke="none"/><rect x="638.0" y="344.5170691211895" width="11.026" height="3.4829308788105315" rx="2" fill="#218575" stroke="none"/><rect x="652.9000000000001" y="344.7384319105689" width="11.026" height="3.2615680894310666" rx="2" fill="#218575" stroke="none"/><rect x="667.8" y="344.9461480233089" width="11.026" height="3.0538519766910706" rx="2" fill="#218575" stroke="none"/><rect x="682.7" y="345.1907223306124" width="11.026" height="2.8092776693875696" rx="2" fill="#218575" stroke="none"/><rect x="697.6" y="345.34644250004254" width="11.026" height="2.6535574999574574" rx="2" fill="#218575" stroke="none"/><rect x="712.5" y="345.5363564850219" width="11.026" height="2.463643514978118" rx="2" fill="#218575" stroke="none"/><rect x="727.4000000000001" y="345.6985080471316" width="11.026" height="2.301491952868401" rx="2" fill="#218575" stroke="none"/><rect x="742.3" y="345.84427369420354" width="11.026" height="2.15572630579645" rx="2" fill="#218575" stroke="none"/><rect x="757.2" y="346.0225377387368" width="11.026" height="1.9774622612632022" rx="2" fill="#218575" stroke="none"/><rect x="772.1" y="346.16709308611877" width="11.026" height="1.8329069138812109" rx="2" fill="#218575" stroke="none"/><rect x="787.0" y="346.3384877813211" width="11.026" height="1.6615122186789202" rx="2" fill="#218575" stroke="none"/><rect x="801.9000000000001" y="346.48233906271076" width="11.026" height="1.5176609372892456" rx="2" fill="#218575" stroke="none"/><rect x="816.8" y="346.6148345970751" width="11.026" height="1.3851654029248652" rx="2" fill="#218575" stroke="none"/><rect x="831.7" y="346.74521441658044" width="11.026" height="1.254785583419548" rx="2" fill="#218575" stroke="none"/><rect x="846.6" y="346.87082700253006" width="11.026" height="1.1291729974699225" rx="2" fill="#218575" stroke="none"/></g><text x="40" y="434" font-size="16" fill="#6d7c90" font-weight="400" text-anchor="start">不缩放时无论上下文多长，总有一根柱子吃掉大半权重、其余几乎贴地；正确缩放后权重摊到一整排。</text></g></svg>