<svg xmlns="http://www.w3.org/2000/svg" viewBox="0 0 1000 616" role="img" aria-labelledby="title desc"><title id="title">通用知识：学一遍，还是被 N 个专家各学一遍</title><desc id="desc">路由专家池 15 个。左边没有共享专家，右边把通用知识拎出来单独放。</desc><defs><marker id="arrow" markerWidth="7" markerHeight="7" refX="6" refY="3.5" orient="auto"><path d="M0 0 L7 3.5 L0 7" fill="#b3becc"/></marker></defs><g font-family="PingFang SC,Microsoft YaHei,Arial,sans-serif"><rect x="0" y="0" width="1000" height="616" rx="0" fill="#ffffff" stroke="none"/><text x="40" y="42" font-size="13" fill="#218575" font-weight="600" text-anchor="start">MATINFER / MOE / 02</text><text x="40" y="85" font-size="28" fill="#24334a" font-weight="600" text-anchor="start">通用知识：学一遍，还是被 N 个专家各学一遍</text><text x="40" y="119" font-size="17" fill="#6d7c90" font-weight="400" text-anchor="start">路由专家池 15 个。左边没有共享专家，右边把通用知识拎出来单独放。</text><rect x="40" y="146" width="440" height="364" rx="12" fill="#f7f9fc" stroke="none"/><text x="64" y="182" font-size="20" fill="#24334a" font-weight="600" text-anchor="start">纯路由专家池</text><text x="64" y="208" font-size="14" fill="#6d7c90" font-weight="400" text-anchor="start">每个专家都私藏一份&quot;通用知识&quot;</text><rect x="520" y="146" width="440" height="364" rx="12" fill="#edf7f2" stroke="none"/><text x="544" y="182" font-size="20" fill="#24334a" font-weight="600" text-anchor="start">1 共享 + 15 路由</text><text x="544" y="208" font-size="14" fill="#6d7c90" font-weight="400" text-anchor="start">通用知识只此一份，路由专家专心做专门化</text><rect x="64" y="218" width="392" height="32" rx="8" fill="#fbf3e6" stroke="none"/><text x="84" y="240" font-size="15" fill="#c88735" font-weight="600" text-anchor="start">15 个专家，每个都含一份通用知识</text><rect x="544" y="218" width="392" height="32" rx="8" fill="#cfe8dd" stroke="none"/><text x="564" y="240" font-size="15" fill="#218575" font-weight="600" text-anchor="start">共享专家：通用知识，永远激活</text><rect x="64" y="262" width="120" height="30" rx="6" fill="#eef1f6" stroke="none"/><rect x="68" y="266" width="50" height="22" rx="4" fill="#f3ddd0" stroke="none"/><text x="93" y="282" font-size="12" fill="#c88735" font-weight="500" text-anchor="middle">通用</text><text x="178" y="282" font-size="12" fill="#6d7c90" font-weight="400" text-anchor="end">专有</text><rect x="200" y="262" width="120" height="30" rx="6" fill="#eef1f6" stroke="none"/><rect x="204" y="266" width="50" height="22" rx="4" fill="#f3ddd0" stroke="none"/><text x="229" y="282" font-size="12" fill="#c88735" font-weight="500" text-anchor="middle">通用</text><text x="314" y="282" font-size="12" fill="#6d7c90" font-weight="400" text-anchor="end">专有</text><rect x="336" y="262" width="120" height="30" rx="6" fill="#eef1f6" stroke="none"/><rect x="340" y="266" width="50" height="22" rx="4" fill="#f3ddd0" stroke="none"/><text x="365" y="282" font-size="12" fill="#c88735" font-weight="500" text-anchor="middle">通用</text><text x="450" y="282" font-size="12" fill="#6d7c90" font-weight="400" text-anchor="end">专有</text><rect x="544" y="262" width="120" height="30" rx="6" fill="#eaf4ee" stroke="none"/><text x="604" y="282" font-size="13" fill="#6d7c90" font-weight="400" text-anchor="middle">专有</text><rect x="680" y="262" width="120" height="30" rx="6" fill="#eaf4ee" stroke="none"/><text x="740" y="282" font-size="13" fill="#6d7c90" font-weight="400" text-anchor="middle">专有</text><rect x="816" y="262" width="120" height="30" rx="6" fill="#eaf4ee" stroke="none"/><text x="876" y="282" font-size="13" fill="#6d7c90" font-weight="400" text-anchor="middle">专有</text><rect x="64" y="302" width="120" height="30" rx="6" fill="#eef1f6" stroke="none"/><rect x="68" y="306" width="50" height="22" rx="4" fill="#f3ddd0" stroke="none"/><text x="93" y="322" font-size="12" fill="#c88735" font-weight="500" text-anchor="middle">通用</text><text x="178" y="322" font-size="12" fill="#6d7c90" font-weight="400" text-anchor="end">专有</text><rect x="200" y="302" width="120" height="30" rx="6" fill="#eef1f6" stroke="none"/><rect x="204" y="306" width="50" height="22" rx="4" fill="#f3ddd0" stroke="none"/><text x="229" y="322" font-size="12" fill="#c88735" font-weight="500" text-anchor="middle">通用</text><text x="314" y="322" font-size="12" fill="#6d7c90" font-weight="400" text-anchor="end">专有</text><rect x="336" y="302" width="120" height="30" rx="6" fill="#eef1f6" stroke="none"/><rect x="340" y="306" width="50" height="22" rx="4" fill="#f3ddd0" stroke="none"/><text x="365" y="322" font-size="12" fill="#c88735" font-weight="500" text-anchor="middle">通用</text><text x="450" y="322" font-size="12" fill="#6d7c90" font-weight="400" text-anchor="end">专有</text><rect x="544" y="302" width="120" height="30" rx="6" fill="#eaf4ee" stroke="none"/><text x="604" y="322" font-size="13" fill="#6d7c90" font-weight="400" text-anchor="middle">专有</text><rect x="680" y="302" width="120" height="30" rx="6" fill="#eaf4ee" stroke="none"/><text x="740" y="322" font-size="13" fill="#6d7c90" font-weight="400" text-anchor="middle">专有</text><rect x="816" y="302" width="120" height="30" rx="6" fill="#eaf4ee" stroke="none"/><text x="876" y="322" font-size="13" fill="#6d7c90" font-weight="400" text-anchor="middle">专有</text><rect x="64" y="342" width="120" height="30" rx="6" fill="#eef1f6" stroke="none"/><rect x="68" y="346" width="50" height="22" rx="4" fill="#f3ddd0" stroke="none"/><text x="93" y="362" font-size="12" fill="#c88735" font-weight="500" text-anchor="middle">通用</text><text x="178" y="362" font-size="12" fill="#6d7c90" font-weight="400" text-anchor="end">专有</text><rect x="200" y="342" width="120" height="30" rx="6" fill="#eef1f6" stroke="none"/><rect x="204" y="346" width="50" height="22" rx="4" fill="#f3ddd0" stroke="none"/><text x="229" y="362" font-size="12" fill="#c88735" font-weight="500" text-anchor="middle">通用</text><text x="314" y="362" font-size="12" fill="#6d7c90" font-weight="400" text-anchor="end">专有</text><rect x="336" y="342" width="120" height="30" rx="6" fill="#eef1f6" stroke="none"/><rect x="340" y="346" width="50" height="22" rx="4" fill="#f3ddd0" stroke="none"/><text x="365" y="362" font-size="12" fill="#c88735" font-weight="500" text-anchor="middle">通用</text><text x="450" y="362" font-size="12" fill="#6d7c90" font-weight="400" text-anchor="end">专有</text><rect x="544" y="342" width="120" height="30" rx="6" fill="#eaf4ee" stroke="none"/><text x="604" y="362" font-size="13" fill="#6d7c90" font-weight="400" text-anchor="middle">专有</text><rect x="680" y="342" width="120" height="30" rx="6" fill="#eaf4ee" stroke="none"/><text x="740" y="362" font-size="13" fill="#6d7c90" font-weight="400" text-anchor="middle">专有</text><rect x="816" y="342" width="120" height="30" rx="6" fill="#eaf4ee" stroke="none"/><text x="876" y="362" font-size="13" fill="#6d7c90" font-weight="400" text-anchor="middle">专有</text><rect x="64" y="382" width="120" height="30" rx="6" fill="#eef1f6" stroke="none"/><rect x="68" y="386" width="50" height="22" rx="4" fill="#f3ddd0" stroke="none"/><text x="93" y="402" font-size="12" fill="#c88735" font-weight="500" text-anchor="middle">通用</text><text x="178" y="402" font-size="12" fill="#6d7c90" font-weight="400" text-anchor="end">专有</text><rect x="200" y="382" width="120" height="30" rx="6" fill="#eef1f6" stroke="none"/><rect x="204" y="386" width="50" height="22" rx="4" fill="#f3ddd0" stroke="none"/><text x="229" y="402" font-size="12" fill="#c88735" font-weight="500" text-anchor="middle">通用</text><text x="314" y="402" font-size="12" fill="#6d7c90" font-weight="400" text-anchor="end">专有</text><rect x="336" y="382" width="120" height="30" rx="6" fill="#eef1f6" stroke="none"/><rect x="340" y="386" width="50" height="22" rx="4" fill="#f3ddd0" stroke="none"/><text x="365" y="402" font-size="12" fill="#c88735" font-weight="500" text-anchor="middle">通用</text><text x="450" y="402" font-size="12" fill="#6d7c90" font-weight="400" text-anchor="end">专有</text><rect x="544" y="382" width="120" height="30" rx="6" fill="#eaf4ee" stroke="none"/><text x="604" y="402" font-size="13" fill="#6d7c90" font-weight="400" text-anchor="middle">专有</text><rect x="680" y="382" width="120" height="30" rx="6" fill="#eaf4ee" stroke="none"/><text x="740" y="402" font-size="13" fill="#6d7c90" font-weight="400" text-anchor="middle">专有</text><rect x="816" y="382" width="120" height="30" rx="6" fill="#eaf4ee" stroke="none"/><text x="876" y="402" font-size="13" fill="#6d7c90" font-weight="400" text-anchor="middle">专有</text><rect x="64" y="422" width="120" height="30" rx="6" fill="#eef1f6" stroke="none"/><rect x="68" y="426" width="50" height="22" rx="4" fill="#f3ddd0" stroke="none"/><text x="93" y="442" font-size="12" fill="#c88735" font-weight="500" text-anchor="middle">通用</text><text x="178" y="442" font-size="12" fill="#6d7c90" font-weight="400" text-anchor="end">专有</text><rect x="200" y="422" width="120" height="30" rx="6" fill="#eef1f6" stroke="none"/><rect x="204" y="426" width="50" height="22" rx="4" fill="#f3ddd0" stroke="none"/><text x="229" y="442" font-size="12" fill="#c88735" font-weight="500" text-anchor="middle">通用</text><text x="314" y="442" font-size="12" fill="#6d7c90" font-weight="400" text-anchor="end">专有</text><rect x="336" y="422" width="120" height="30" rx="6" fill="#eef1f6" stroke="none"/><rect x="340" y="426" width="50" height="22" rx="4" fill="#f3ddd0" stroke="none"/><text x="365" y="442" font-size="12" fill="#c88735" font-weight="500" text-anchor="middle">通用</text><text x="450" y="442" font-size="12" fill="#6d7c90" font-weight="400" text-anchor="end">专有</text><rect x="544" y="422" width="120" height="30" rx="6" fill="#eaf4ee" stroke="none"/><text x="604" y="442" font-size="13" fill="#6d7c90" font-weight="400" text-anchor="middle">专有</text><rect x="680" y="422" width="120" height="30" rx="6" fill="#eaf4ee" stroke="none"/><text x="740" y="442" font-size="13" fill="#6d7c90" font-weight="400" text-anchor="middle">专有</text><rect x="816" y="422" width="120" height="30" rx="6" fill="#eaf4ee" stroke="none"/><text x="876" y="442" font-size="13" fill="#6d7c90" font-weight="400" text-anchor="middle">专有</text><text x="64" y="484" font-size="16" fill="#c88735" font-weight="500" text-anchor="start">通用知识存了 15 份，真正用得上的只有 1 份</text><text x="544" y="484" font-size="16" fill="#218575" font-weight="500" text-anchor="start">通用知识只存 1 份，省下的容量全给专有知识</text><text x="40" y="548" font-size="17" fill="#6d7c90" font-weight="400" text-anchor="start">共享专家是常驻的，占一份固定算力：给多了吃掉稀疏性，给少了装不下通用知识。</text><text x="40" y="576" font-size="17" fill="#6d7c90" font-weight="400" text-anchor="start">所以 V2 用 2 个共享专家，V3 减到 1 个 —— 路由池从 160 涨到 256 之后，常驻容量不再需要那么多。</text></g></svg>